<?xml version="1.0" encoding="iso-8859-1"?>
<!-- Generator: Adobe Illustrator 17.0.0, SVG Export Plug-In . SVG Version: 6.00 Build 0)  -->
<!DOCTYPE svg PUBLIC "-//W3C//DTD SVG 1.1//EN" "http://www.w3.org/Graphics/SVG/1.1/DTD/svg11.dtd">
<svg version="1.1" id="&#x421;&#x43B;&#x43E;&#x439;_1"
	 xmlns="http://www.w3.org/2000/svg" xmlns:xlink="http://www.w3.org/1999/xlink" x="0px" y="0px" width="40.667px"
	 height="422.667px" viewBox="0 0 40.667 422.667" style="enable-background:new 0 0 40.667 422.667;" xml:space="preserve">
<g>
	<path style="fill-rule:evenodd;clip-rule:evenodd;fill:#0D0F0F;" d="M21.076,212.242c0,0-1.08,16.488-0.792,30.888
		c0.36,17.712-0.864,33.192,11.952,47.304c0,0-11.088-8.352-13.392-29.88C16.54,239.026,21.076,212.242,21.076,212.242z"/>
	<path style="fill-rule:evenodd;clip-rule:evenodd;fill:#0D0F0F;" d="M18.772,253.858c0,0,1.008,16.488,0.72,30.888
		c-0.288,17.712,0.864,33.192-11.952,47.304c0,0,11.088-8.28,13.392-29.88C23.236,280.642,18.772,253.858,18.772,253.858z"/>
	<path style="fill-rule:evenodd;clip-rule:evenodd;fill:#0D0F0F;" d="M21.076,293.53c0,0-1.08,16.488-0.792,30.888
		c0.36,17.712-0.864,33.192,11.952,47.304c0,0-11.088-8.353-13.392-29.88C16.54,320.314,21.076,293.53,21.076,293.53z"/>
	<path style="fill-rule:evenodd;clip-rule:evenodd;fill:#0D0F0F;" d="M22.66,357.969c0.432,2.088,1.368,6.625,2.232,7.92
		c1.152,1.728,1.656,4.104,2.016,7.992c0.36,3.816,0.936,8.496,0.936,8.496l-1.584-3.312l0.864,9.936l-1.08-1.224l0.288,7.776
		l-1.008-1.152v8.712l-1.08-2.88l-0.144,6.984l-0.864-2.376l-0.576,6.192l-0.504-6.192l-0.864,2.376l-0.144-6.984l-1.08,2.88v-8.712
		l-1.008,1.152l0.216-7.776l-1.008,1.224l0.864-9.936l-1.656,3.312c0,0,0.576-4.68,0.936-8.496c0.36-3.888,0.864-6.264,2.088-7.992
		C21.364,364.594,22.3,360.057,22.66,357.969z"/>
</g>
<g>
	<path style="fill-rule:evenodd;clip-rule:evenodd;fill:#0D0F0F;" d="M20.404,212.242c0,0,1.08-16.488,0.792-30.888
		c-0.36-17.712,0.864-33.192-11.952-47.304c0,0,11.088,8.352,13.392,29.88C24.94,185.457,20.404,212.242,20.404,212.242z"/>
	<path style="fill-rule:evenodd;clip-rule:evenodd;fill:#0D0F0F;" d="M22.708,170.625c0,0-1.008-16.488-0.72-30.888
		c0.288-17.712-0.864-33.192,11.952-47.304c0,0-11.088,8.28-13.392,29.88C18.245,143.841,22.708,170.625,22.708,170.625z"/>
	<path style="fill-rule:evenodd;clip-rule:evenodd;fill:#0D0F0F;" d="M20.404,130.953c0,0,1.08-16.488,0.792-30.888
		c-0.36-17.712,0.864-33.192-11.952-47.304c0,0,11.088,8.353,13.392,29.88C24.94,104.169,20.404,130.953,20.404,130.953z"/>
	<path style="fill-rule:evenodd;clip-rule:evenodd;fill:#0D0F0F;" d="M18.82,66.514c-0.432-2.088-1.368-6.625-2.232-7.92
		c-1.152-1.728-1.656-4.104-2.016-7.992c-0.36-3.816-0.936-8.496-0.936-8.496l1.584,3.312l-0.864-9.936l1.08,1.224l-0.288-7.776
		l1.008,1.152v-8.712l1.08,2.88l0.144-6.984l0.864,2.376l0.576-6.192l0.504,6.192l0.864-2.376l0.144,6.984l1.08-2.88v8.712
		l1.008-1.152l-0.216,7.776l1.008-1.224l-0.864,9.936l1.656-3.312c0,0-0.576,4.68-0.936,8.496c-0.36,3.888-0.864,6.264-2.088,7.992
		C20.116,59.889,19.181,64.426,18.82,66.514z"/>
</g>
</svg>
