<?xml version="1.0" encoding="utf-8"?>
<!-- Generator: Adobe Illustrator 17.0.0, SVG Export Plug-In . SVG Version: 6.00 Build 0)  -->
<!DOCTYPE svg PUBLIC "-//W3C//DTD SVG 1.1//EN" "http://www.w3.org/Graphics/SVG/1.1/DTD/svg11.dtd">
<svg version="1.1" id="Слой_1" xmlns="http://www.w3.org/2000/svg" xmlns:xlink="http://www.w3.org/1999/xlink" x="0px" y="0px"
	 width="147.4px" height="45.35px" viewBox="0 0 147.4 45.35" enable-background="new 0 0 147.4 45.35" xml:space="preserve">
<g>
	<path d="M126.902,1.217c4.968-1.944,10.368,0.144,13.032,4.248c0.92,1.498,1.395,3.084,1.526,4.668
		c-0.018,0.328,0.027,0.652,0.101,0.969c-0.051,0.24-0.085,0.484-0.084,0.731c-0.261,3.154-1.949,6.173-4.783,8.319
		c-1.861,1.412-4.237,2.475-6.668,2.742c-2.495,0.761-4.122-2.516-2.332-5.262c2.016-3.096,6.984-6.624,10.872-7.056
		c0.432,0,0.648,0,0.648,0s-0.432,0.288-1.08,0.648c-1.8,1.08-5.616,3.024-6.48,5.184c-0.144,0.288-0.144,0.648-0.144,0.864
		c-0.072,0-0.072-0.072-0.144-0.072c-0.864-0.432-1.872-0.216-2.232,0.504c-0.216,0.504-0.072,1.08,0.288,1.584
		c-0.288,0-0.576,0.216-0.72,0.504c-0.216,0.504,0.072,1.152,0.72,1.512c0.648,0.288,1.368,0.144,1.656-0.36
		c0.144-0.288,0.072-0.648-0.072-0.936c0.576,0,1.152-0.216,1.368-0.72s0.072-1.152-0.36-1.584c0.072,0,1.296-0.504,1.8-2.016
		c0.504-1.656,2.448-2.952,3.672-3.528c1.152-0.576,2.016-1.008,2.016-1.008s-0.72,0.504-1.512,1.224
		c-3.24,2.736-3.456,6.696-6.336,9.504c-0.366,0.35-0.723,0.597-1.07,0.78c5.244-1.267,9.343-4.87,10.286-9.924
		c0.504-3.672-0.864-7.2-4.104-9.576c-3.096-2.16-7.272-2.52-10.584-0.504c-2.808,1.872-4.176,5.328-2.16,8.136
		c1.224,1.512,3.456,2.376,5.328,1.296c1.008-0.648,1.296-1.512,1.152-2.592c-0.144-0.792,0.72-0.36,1.008,0.072
		c1.008,1.44-0.216,3.168-1.656,3.888c-3.096,1.512-6.408-0.432-7.56-3.168C120.854,6.545,123.158,2.873,126.902,1.217z"/>
	<path d="M84.277,38.945c0,0,0.216-0.288,0.72-0.648c2.304-1.944,4.392-2.664,7.344-1.656c2.88,0.864,9,1.008,10.584-2.448
		c0.432-1.08,0.576-1.08,0.576-1.08s0.144,0.36,0.36,0.792c1.008,2.088,3.816,3.744,6.192,2.376c1.152-0.72,3.96-3.672,5.832-2.952
		c1.872,0.792,2.16,2.952,4.104,2.952c2.016,0,2.592-0.288,2.592-0.288s-2.736,0.072-3.744-1.08
		c-1.079-1.152-0.936-1.944-0.936-1.944s0.792-0.72,0.576-1.224c-0.144-0.576-1.296-0.72-2.376,0.072
		c-1.512,1.08-3.816,1.513-5.544,2.448c-0.288,0.144-0.504,0.216-0.504,0.216s0.648-1.872-0.216-1.224
		c-0.864,0.576-1.512,1.152-2.592,0.936s-1.728-1.512-0.36-2.016c1.44-0.576,2.376-0.432,4.032-0.432c1.656-0.072,2.448,0,2.88-0.36
		c0.432-0.288-0.216-0.792-0.216-0.792c1.368,0.576,2.16,0.648,2.808,0.144c0.792-0.576,0.144-1.008,0.144-1.008
		s2.736,0.144,3.096-0.504c0.288-0.72-0.72-0.864-0.72-0.792c0,0,0.432-0.288,1.008-0.576c2.952-1.152,5.688-4.248,5.976-7.344
		c0.36-3.384-2.592-5.976-5.832-5.616c-1.512,0.216-2.808,0.936-3.384,1.944c-0.936,2.016,1.8,3.816,2.52,2.232
		c0.432-1.08-1.44-0.936-0.864-2.232c0.504-0.936,2.664-1.296,3.6-0.936c0.432,0.072,0.432,0.432,0.432,0.432
		c0,0.072-0.864-0.288-1.296,0.504c-0.36,0.792,0.144,1.512,1.368,1.296c1.224-0.144,2.232-0.072,2.448,1.296
		c0.216,1.296-0.216,1.8-0.216,1.8s-0.432-1.944-1.584-1.584c-1.08,0.288-1.008,0.864-0.504,1.152c0.504,0.36,0.36,0.936,0.36,0.936
		s-0.648-0.864-1.512-0.72c-0.792,0.144-1.08,0.144-1.08,0.144s1.512,0.576,2.088,1.512c0.504,0.936,0.144,2.016-0.792,3.024
		c-0.864,0.936-2.304,1.8-2.304,1.8s1.224-1.368,1.152-2.448c-0.072-1.152-1.008-1.656-1.008-1.656s0.072-0.288,0-0.648
		c-0.36-2.088-3.096-0.936-2.592,0.144c0,0-1.224-0.072-1.152,1.152c0.144,1.08,0.648,1.728,1.656,1.512c0,0-0.72-0.144-0.36-1.008
		c0.288-0.864,1.152-0.504,1.512,0.144c1.656,2.952-12.816,8.496-13.824,5.256c-0.288-1.08,0.36-2.664,1.152-2.016
		s0.864,1.008,0.864,1.008s0.792-0.504-0.144-1.224c-0.864-0.72,0.072-1.872,1.008-1.152c0.288,0.288,1.008,1.584,1.656,1.152
		c0.144-0.144,0.432-0.36,0.216-1.008c-0.72-1.728,1.08-0.648,1.224,0.216c0.144,0.936,0.288,1.872,0.792,1.08
		c0.576-0.792,0.288-2.52-1.008-3.24c-3.6-1.944-8.496,1.08-7.56,5.832c0.072,0.36,0.144,0.648,0.144,0.648
		c-0.216-0.144-0.432-0.288-0.648-0.504c-1.368-1.152-4.32-1.368-4.824,0.432c-0.432,1.8,1.224,2.088,1.656,1.224
		s0.792-0.864,0.792-0.864s0.792,0.432,0.144,0.936c-0.648,0.504-0.144,1.512,0.432,0.576c0.144-0.216,1.368-1.512,1.584-0.576
		c0.504,2.16-4.392,2.736-5.472,1.152c-0.864-1.296-0.216-2.376-0.216-2.376c-1.296-0.36-1.872,0.072-2.016,1.296
		c0,0.288,0,0.432,0,0.432s-1.08-0.72-1.224-1.656c-0.072-1.008-0.072-2.232,1.656-2.232c1.728,0.072,1.8-0.648,0.864-0.936
		c-0.936-0.36-2.376,0.144-2.376,0.144s0.72-1.944,2.592-1.152c1.944,0.792,2.592,0.72,1.8-0.144
		c-0.432-0.504-1.152-0.792-1.8-1.008c-0.432-0.072-0.936-0.144-1.44-0.072c-2.952,0.432-3.6,4.536-2.232,6.624
		c1.08,1.656,3.168,2.592,5.112,2.52c0.72,0,1.152-0.072,1.152-0.072s-1.944,1.224-4.032,0.288c-1.512-0.72-2.232-2.232-3.672-2.88
		c-0.936-0.504-2.016-0.432-2.376,0.144c-0.791,1.152,1.369,2.16,2.233,2.16c3.168,0.648-0.216,0.576-1.656,0.216
		C85.502,34.049,85.43,36.857,84.277,38.945z"/>
	<path d="M136.19,37.073c-1.728,2.304-4.392,3.456-7.2,2.736c-2.592-0.864-4.32-3.24-3.816-5.976
		c0.432-2.016,2.304-3.744,4.536-3.168c0.72,0.216,1.584,0.864,1.584,1.728c0,0.504-0.36,0.216-0.648,0.072
		c-1.512-0.936-3.312,0.216-3.24,1.944c0,1.944,1.944,3.096,3.744,2.664c3.024-1.224,3.24-6.12,0.432-7.776
		c-1.44-0.864-3.384-0.936-4.968-0.216c-4.248,2.016-4.176,7.632-0.864,10.512c0.648,0.504,1.296,0.864,2.016,1.152
		c-0.864,0.36-1.44,0.936-1.296,1.44c0.144,0.648,1.44,0.936,2.952,0.576c0.216,0,0.432-0.072,0.576-0.144
		c-0.36,1.152-0.288,2.16,0.288,2.376c0.576,0.288,1.584-0.648,2.232-2.016c0.504-1.08,0.576-2.16,0.288-2.736
		c2.376-0.864,4.176-2.88,4.752-5.544c0.36-1.8,0.072-3.528-0.648-5.04c0.288,0.072,0.576,0.432,0.936,0.504
		c2.736,1.008,2.808-2.808-0.504-3.096c-1.872-0.216-3.672-1.152-3.672-1.152s0.144-0.504,1.944-0.288
		c1.8,0.144,2.52-2.16,1.584-3.096c-0.936-1.008-0.936-1.008-0.936-1.008s1.296,2.376-0.432,2.664s-2.232,0-4.176-0.288
		c-3.672-0.648-6.12,0.144-8.568,2.736c-0.36,0.36-0.648,0.792-0.936,1.152l-0.144,0.216c0,0,0.36-0.36,0.936-0.864
		c2.952-2.592,7.2-3.168,10.656-0.936C136.982,28.937,138.782,32.969,136.19,37.073z"/>
	<path d="M13.575,33.616c0,0,0,0,0.648,0c2.232-0.216,2.592,3.384,5.544,0.936c1.296-1.152,3.24-1.008,3.24-1.008
		s-0.072,0.072-0.288,0.144c-2.448,1.152-3.816,2.664-3.096,5.544c0,0,0.072-0.144,0.432-0.72s1.08-0.864,2.016-1.152
		c0.864-0.288,0.792-1.296,0.864-2.52c0.081-0.685,0.768-1.206,1.36-1.537c0.132,0.399,0.488,0.674,0.944,0.674
		c0.28,0,0.529-0.142,0.703-0.36h61.433c-0.216-0.36-0.288-0.72,0-1.08c0-0.072,0-0.072,0.072-0.144H25.988
		c-0.172-0.258-0.44-0.432-0.749-0.432c-0.487,0-0.853,0.316-0.961,0.759c-0.409-0.098-0.861-0.232-1.128-0.399
		c-1.728-1.224-2.808-2.16-5.04-0.792c-0.288,0.216-0.432,0.36-0.432,0.36s0.432-0.072,1.08-0.072c1.44,0,1.44,1.584,3.24,1.512
		c0.36,0,0.576-0.072,0.576-0.072s-0.936,0.36-1.8,0.288c-2.016-0.216-4.032-1.512-6.624-0.288
		C13.79,33.401,13.575,33.616,13.575,33.616z"/>
</g>
</svg>
