<svg xmlns="http://www.w3.org/2000/svg" xmlns:xlink="http://www.w3.org/1999/xlink" version="1.1" x="0px" y="0px" width="126px" height="51px" viewBox="0 0 126 51" enable-background="new 0 0 126 51" xml:space="preserve"><g><g><circle fill="#FFFFFF" cx="29.8" cy="47.8" r="3"/><circle fill="#FFFFFF" cx="39.5" cy="48" r="3"/><circle fill="#FFFFFF" cx="49.3" cy="48" r="3"/><circle fill="#FFFFFF" cx="59" cy="47.9" r="3"/><circle fill="#FFFFFF" cx="29.8" cy="39.8" r="2.5"/><circle fill="#FFFFFF" cx="39.5" cy="39.8" r="3"/><circle fill="#FFFFFF" cx="49.3" cy="40" r="3"/><circle fill="#FFFFFF" cx="49.3" cy="32.1" r="3"/><circle fill="#FFFFFF" cx="49.3" cy="24.2" r="3"/><circle fill="#FFFFFF" cx="59" cy="39.8" r="3"/><circle fill="#FFFFFF" cx="49.3" cy="15.9" r="2.5"/><circle fill="#FFFFFF" cx="49.3" cy="8.3" r="2.2"/><circle fill="#FFFFFF" cx="49.4" cy="1.6" r="1.5"/><circle fill="#FFFFFF" cx="39.5" cy="24.3" r="2.2"/><circle fill="#FFFFFF" cx="39.5" cy="32.3" r="2.5"/><circle fill="#FFFFFF" cx="11.8" cy="47.8" r="3"/><circle fill="#FFFFFF" cx="3" cy="47.8" r="3"/><circle fill="#FFFFFF" cx="11.5" cy="38.7" r="2.5"/><circle fill="#FFFFFF" cx="59" cy="32.1" r="2.5"/><circle fill="#FFFFFF" cx="39.3" cy="17.9" r="1.5"/><circle fill="#FFFFFF" cx="59" cy="25.2" r="2.2"/><circle fill="#FFFFFF" cx="20.5" cy="47.9" r="3"/><circle fill="#FFFFFF" cx="29.8" cy="32.2" r="2.1"/></g><g><circle fill="#FFFFFF" cx="68.5" cy="47.8" r="3"/><circle fill="#FFFFFF" cx="77.8" cy="47.8" r="3"/><circle fill="#FFFFFF" cx="86.4" cy="47.8" r="3"/><circle fill="#FFFFFF" cx="95.3" cy="47.8" r="3"/><circle fill="#FFFFFF" cx="86.3" cy="39.9" r="3"/><circle fill="#FFFFFF" cx="95.3" cy="39.9" r="3"/><circle fill="#FFFFFF" cx="86.3" cy="31.4" r="2.5"/><circle fill="#FFFFFF" cx="104.1" cy="47.8" r="3"/><circle fill="#FFFFFF" cx="113.3" cy="47.8" r="3"/><circle fill="#FFFFFF" cx="123" cy="47.8" r="3"/></g></g></svg>