<?xml version="1.0" encoding="utf-8"?>
<!-- Generator: Adobe Illustrator 17.0.0, SVG Export Plug-In . SVG Version: 6.00 Build 0)  -->
<!DOCTYPE svg PUBLIC "-//W3C//DTD SVG 1.1//EN" "http://www.w3.org/Graphics/SVG/1.1/DTD/svg11.dtd">
<svg version="1.1" id="Слой_1" xmlns="http://www.w3.org/2000/svg" xmlns:xlink="http://www.w3.org/1999/xlink" x="0px" y="0px"
	 width="257.95px" height="45.35px" viewBox="0 0 257.95 45.35" enable-background="new 0 0 257.95 45.35" xml:space="preserve">
<g>
	<path fill-rule="evenodd" clip-rule="evenodd" fill="#FFFFFF" d="M106.108,35.156c-1.008-1.152-0.864-1.944-0.864-1.944
		s0.792-0.72,0.576-1.224c-0.144-0.576-1.296-0.72-2.376,0.072c-1.512,1.08-3.816,1.512-5.544,2.448
		c-0.288,0.144-0.504,0.216-0.504,0.216s0.648-1.872-0.216-1.224c-0.864,0.576-1.512,1.152-2.592,0.936
		c-1.08-0.216-1.728-1.512-0.36-2.016c1.44-0.576,2.376-0.432,4.032-0.432c1.656-0.072,2.376,0,2.808-0.36
		c0.504-0.288-0.216-0.792-0.216-0.792c1.44,0.576,2.232,0.648,2.88,0.144c0.792-0.576,0.144-1.008,0.144-1.008
		s2.736,0.144,3.024-0.504c0.36-0.72-0.648-0.864-0.648-0.792c0,0,0.432-0.288,1.008-0.576c2.952-1.152,5.688-4.248,5.976-7.344
		c0.36-3.384-2.592-5.976-5.832-5.616c-1.512,0.216-2.88,0.936-3.384,1.944c-1.008,2.016,1.8,3.816,2.52,2.232
		c0.36-1.08-1.44-0.936-0.864-2.232c0.504-0.936,2.664-1.296,3.6-0.936c0.432,0.072,0.432,0.432,0.432,0.432
		c0,0.072-0.936-0.288-1.296,0.504c-0.36,0.792,0.144,1.512,1.368,1.296c1.224-0.144,2.232-0.072,2.448,1.296
		c0.216,1.296-0.216,1.8-0.216,1.8s-0.432-1.944-1.584-1.584c-1.08,0.288-1.008,0.864-0.504,1.152c0.504,0.36,0.36,0.936,0.36,0.936
		s-0.648-0.864-1.512-0.72c-0.792,0.144-1.08,0.144-1.08,0.144s1.512,0.576,2.088,1.512c0.504,0.936,0.144,2.016-0.792,3.024
		c-0.864,0.936-2.376,1.8-2.376,1.8s1.296-1.368,1.224-2.448c-0.144-1.152-1.008-1.656-1.008-1.656s0.072-0.288,0-0.648
		c-0.36-2.088-3.096-0.936-2.592,0.144c0,0-1.224-0.072-1.152,1.152c0.072,1.08,0.648,1.728,1.656,1.512c0,0-0.72-0.144-0.36-1.008
		c0.288-0.864,1.152-0.504,1.512,0.144c1.584,2.952-12.816,8.496-13.824,5.256c-0.288-1.08,0.36-2.664,1.152-2.016
		c0.792,0.648,0.864,1.008,0.864,1.008s0.72-0.504-0.144-1.224c-0.864-0.72,0-1.872,1.008-1.152
		c0.288,0.288,1.008,1.584,1.656,1.152c0.144-0.144,0.432-0.36,0.144-1.008C96.1,25.22,97.9,26.3,98.044,27.164
		c0.072,0.936,0.288,1.872,0.792,1.08c0.576-0.792,0.288-2.52-1.008-3.24c-3.6-1.944-8.496,1.08-7.559,5.832
		c0.072,0.36,0.143,0.648,0.143,0.648c-0.216-0.144-0.432-0.288-0.648-0.504c-1.368-1.152-4.32-1.368-4.824,0.432
		c-0.432,1.8,1.152,2.088,1.656,1.224c0.432-0.864,0.792-0.864,0.792-0.864s0.792,0.432,0.144,0.936
		c-0.648,0.504-0.144,1.512,0.432,0.576c0.144-0.216,1.368-1.512,1.584-0.576c0.504,2.16-4.392,2.736-5.472,1.152
		c-0.864-1.296-0.216-2.376-0.216-2.376c-1.296-0.36-1.872,0.072-2.016,1.296c0,0.288,0,0.432,0,0.432s-1.152-0.72-1.224-1.656
		c-0.072-1.008-0.072-2.232,1.656-2.232c1.728,0.072,1.8-0.648,0.864-0.936c-0.936-0.36-2.376,0.144-2.376,0.144
		s0.72-1.944,2.592-1.152c1.944,0.792,2.52,0.72,1.8-0.144c-0.504-0.504-1.152-0.792-1.872-1.008
		c-0.36-0.072-0.864-0.144-1.368-0.072c-2.952,0.432-3.6,4.536-2.232,6.624c1.08,1.656,3.168,2.592,5.112,2.52
		c0.72,0,1.152-0.072,1.152-0.072s-1.944,1.224-4.032,0.288c-1.512-0.72-2.304-2.232-3.672-2.88
		c-0.936-0.504-2.016-0.432-2.376,0.144c-0.792,1.152,1.368,2.16,2.232,2.16c3.168,0.648-0.288,0.576-1.656,0.216
		c-3.6-0.864-3.744,1.944-4.824,4.032c0,0,0.216-0.288,0.72-0.648c2.304-1.944,4.32-2.664,7.344-1.656
		c2.88,0.864,9,1.008,10.512-2.448c0.504-1.08,0.648-1.08,0.648-1.08s0.144,0.36,0.36,0.792c1.008,2.088,3.816,3.744,6.192,2.376
		c1.152-0.72,3.96-3.672,5.832-2.952c1.872,0.792,2.16,2.952,4.104,2.952c2.016,0,2.592-0.288,2.592-0.288
		S107.188,36.308,106.108,35.156z"/>
	<path fill-rule="evenodd" clip-rule="evenodd" fill="#FFFFFF" d="M124.684,27.308c-1.872-0.216-3.672-1.152-3.672-1.152
		s0.144-0.504,1.944-0.288c1.8,0.144,2.448-2.16,1.584-3.096c-0.936-1.008-0.936-1.008-0.936-1.008s1.296,2.376-0.432,2.664
		c-1.728,0.288-2.304,0-4.176-0.288c-3.672-0.648-6.12,0.144-8.568,2.736c-0.36,0.36-0.648,0.792-0.936,1.152l-0.144,0.216
		c0,0,0.36-0.36,0.936-0.864c2.952-2.592,7.2-3.168,10.656-0.936c3.384,2.736,5.184,6.768,2.592,10.872
		c-1.728,2.304-4.392,3.456-7.2,2.736c-2.592-0.864-4.32-3.24-3.888-5.976c0.504-2.016,2.376-3.744,4.608-3.168
		c0.72,0.216,1.584,0.864,1.584,1.728c0,0.504-0.36,0.216-0.648,0.072c-1.512-0.936-3.312,0.216-3.24,1.944
		c0,1.944,1.944,3.096,3.744,2.664c3.024-1.224,3.168-6.12,0.432-7.776c-1.44-0.864-3.384-0.936-4.968-0.216
		c-4.248,2.016-4.176,7.632-0.864,10.512c0.648,0.504,1.296,0.864,2.016,1.152c-0.864,0.36-1.44,0.936-1.296,1.44
		c0.144,0.648,1.44,0.936,2.952,0.576c0.216,0,0.432-0.072,0.576-0.144c-0.36,1.152-0.288,2.16,0.288,2.376
		c0.576,0.288,1.584-0.648,2.232-2.016c0.504-1.08,0.576-2.16,0.288-2.736c2.376-0.864,4.176-2.88,4.752-5.544
		c0.36-1.8,0.072-3.528-0.648-5.04c0.288,0.072,0.576,0.432,0.936,0.504C127.924,31.412,127.996,27.596,124.684,27.308z"/>
	<path fill-rule="evenodd" clip-rule="evenodd" fill="#FFFFFF" d="M133.684,20.396c1.861,1.412,4.237,2.475,6.668,2.742
		c2.495,0.761,4.122-2.516,2.332-5.262c-2.016-3.096-6.984-6.624-10.872-7.056c-0.432,0-0.648,0-0.648,0s0.432,0.288,1.08,0.648
		c1.8,1.08,5.616,3.024,6.48,5.184c0.144,0.288,0.144,0.648,0.144,0.864c0.072,0,0.072-0.072,0.144-0.072
		c0.864-0.432,1.872-0.216,2.232,0.504c0.216,0.504,0.072,1.08-0.288,1.584c0.288,0,0.576,0.216,0.72,0.504
		c0.216,0.504-0.072,1.152-0.72,1.512c-0.648,0.288-1.368,0.144-1.656-0.36c-0.144-0.288-0.072-0.648,0.072-0.936
		c-0.576,0-1.152-0.216-1.368-0.72c-0.216-0.504-0.072-1.152,0.36-1.584c-0.072,0-1.296-0.504-1.8-2.016
		c-0.504-1.656-2.448-2.952-3.672-3.528c-1.152-0.576-2.016-1.008-2.016-1.008s0.72,0.504,1.512,1.224
		c3.24,2.736,3.456,6.696,6.336,9.504c0.366,0.35,0.723,0.597,1.07,0.78c-5.244-1.267-9.343-4.87-10.286-9.924
		c-0.504-3.672,0.864-7.2,4.104-9.576c3.096-2.16,7.272-2.52,10.584-0.504c2.808,1.872,4.176,5.328,2.16,8.136
		c-1.224,1.512-3.456,2.376-5.328,1.296c-1.008-0.648-1.296-1.512-1.152-2.592c0.144-0.792-0.72-0.36-1.008,0.072
		c-1.008,1.44,0.216,3.168,1.656,3.888c3.096,1.512,6.408-0.432,7.56-3.168c1.44-3.744-0.864-7.416-4.608-9.072
		c-4.968-1.944-10.368,0.144-13.032,4.248c-1.08,1.759-1.579,3.64-1.584,5.497c-0.005-1.857-0.504-3.738-1.584-5.497
		c-2.736-4.104-8.064-6.192-13.032-4.248c-3.816,1.656-6.048,5.328-4.68,9.072c1.224,2.736,4.536,4.68,7.632,3.168
		c1.44-0.72,2.664-2.448,1.656-3.888c-0.36-0.432-1.152-0.864-1.008-0.072c0.144,1.08-0.144,1.944-1.152,2.592
		c-1.872,1.08-4.104,0.216-5.328-1.296c-2.016-2.808-0.648-6.264,2.16-8.136c3.312-2.016,7.488-1.656,10.584,0.504
		c3.24,2.376,4.608,5.904,4.032,9.576c-0.876,5.055-4.97,8.658-10.214,9.925c0.347-0.183,0.705-0.431,1.07-0.781
		c2.808-2.808,3.096-6.768,6.264-9.504c0.864-0.72,1.584-1.224,1.584-1.224s-0.864,0.432-2.016,1.008
		c-1.224,0.576-3.168,1.872-3.672,3.528c-0.504,1.512-1.728,2.016-1.8,2.016c0.432,0.432,0.576,1.08,0.36,1.584
		c-0.216,0.504-0.792,0.72-1.368,0.72c0.144,0.288,0.216,0.648,0.072,0.936c-0.288,0.504-1.008,0.648-1.656,0.36
		c-0.648-0.36-0.936-1.008-0.72-1.512c0.144-0.288,0.432-0.504,0.72-0.504c-0.36-0.504-0.504-1.08-0.288-1.584
		c0.36-0.72,1.296-0.936,2.232-0.504c0.072,0,0.072,0.072,0.144,0.072c0-0.216,0-0.576,0.143-0.864
		c0.864-2.16,4.608-4.104,6.48-5.184c0.648-0.36,1.08-0.648,1.08-0.648s-0.216,0-0.72,0c-3.888,0.432-8.784,3.96-10.8,7.056
		c-1.791,2.746-0.163,6.023,2.331,5.262c2.432-0.267,4.808-1.33,6.669-2.742c2.955-2.238,4.682-5.423,4.824-8.723
		C129.002,14.973,130.729,18.158,133.684,20.396z"/>
	<path fill-rule="evenodd" clip-rule="evenodd" fill="#FFFFFF" d="M181.276,35.156c-1.44,0.36-4.824,0.432-1.656-0.216
		c0.864,0,3.024-1.008,2.233-2.16c-0.36-0.576-1.44-0.648-2.376-0.144c-1.44,0.648-2.16,2.16-3.672,2.88
		c-2.088,0.936-4.032-0.288-4.032-0.288s0.432,0.072,1.152,0.072c1.944,0.072,4.032-0.864,5.112-2.52
		c1.368-2.088,0.72-6.192-2.232-6.624c-0.504-0.072-1.008,0-1.44,0.072c-0.648,0.216-1.368,0.504-1.8,1.008
		c-0.792,0.864-0.144,0.936,1.8,0.144c1.872-0.792,2.592,1.152,2.592,1.152s-1.44-0.504-2.376-0.144
		c-0.936,0.288-0.864,1.008,0.864,0.936c1.728,0,1.728,1.224,1.656,2.232c-0.144,0.936-1.224,1.656-1.224,1.656s0-0.144,0-0.432
		c-0.144-1.224-0.72-1.656-2.016-1.296c0,0,0.648,1.08-0.216,2.376c-1.08,1.584-5.976,1.008-5.472-1.152
		c0.216-0.936,1.44,0.36,1.584,0.576c0.576,0.936,1.08-0.072,0.432-0.576c-0.648-0.504,0.144-0.936,0.144-0.936s0.36,0,0.792,0.864
		c0.432,0.864,2.088,0.576,1.656-1.224c-0.504-1.8-3.456-1.584-4.824-0.432c-0.216,0.216-0.432,0.36-0.648,0.504
		c0,0,0.072-0.288,0.144-0.648c0.936-4.752-3.96-7.776-7.56-5.832c-1.296,0.72-1.584,2.448-1.008,3.24
		c0.504,0.792,0.648-0.144,0.792-1.08c0.144-0.864,1.944-1.944,1.224-0.216c-0.216,0.648,0.072,0.864,0.216,1.008
		c0.648,0.432,1.368-0.864,1.656-1.152c0.936-0.72,1.872,0.432,1.008,1.152c-0.936,0.72-0.144,1.224-0.144,1.224
		s0.072-0.36,0.864-1.008s1.44,0.936,1.152,2.016c-1.008,3.24-15.48-2.304-13.824-5.256c0.36-0.648,1.224-1.008,1.512-0.144
		c0.36,0.864-0.36,1.008-0.36,1.008c1.008,0.216,1.512-0.432,1.656-1.512c0.072-1.224-1.152-1.152-1.152-1.152
		c0.504-1.08-2.232-2.232-2.592-0.144c-0.072,0.36,0,0.648,0,0.648s-0.936,0.504-1.008,1.656c-0.072,1.08,1.152,2.448,1.152,2.448
		s-1.44-0.864-2.304-1.8c-0.936-1.008-1.296-2.088-0.792-3.024c0.576-0.936,2.088-1.512,2.088-1.512s-0.288,0-1.08-0.144
		c-0.864-0.144-1.512,0.72-1.512,0.72s-0.144-0.576,0.36-0.936c0.504-0.288,0.576-0.864-0.504-1.152
		c-1.152-0.36-1.584,1.584-1.584,1.584s-0.432-0.504-0.216-1.8c0.216-1.368,1.224-1.44,2.448-1.296
		c1.224,0.216,1.728-0.504,1.368-1.296c-0.432-0.792-1.296-0.432-1.296-0.504c0,0,0-0.36,0.432-0.432c0.936-0.36,3.096,0,3.6,0.936
		c0.576,1.296-1.296,1.152-0.864,2.232c0.72,1.584,3.456-0.216,2.52-2.232c-0.576-1.008-1.872-1.728-3.384-1.944
		c-3.24-0.36-6.192,2.232-5.832,5.616c0.288,3.096,3.024,6.192,5.976,7.344c0.576,0.288,1.008,0.576,1.008,0.576
		c0-0.072-1.008,0.072-0.72,0.792c0.36,0.648,3.096,0.504,3.096,0.504s-0.648,0.432,0.144,1.008c0.648,0.504,1.44,0.432,2.808-0.144
		c0,0-0.648,0.504-0.216,0.792c0.432,0.36,1.224,0.288,2.88,0.36c1.656,0,2.592-0.144,4.032,0.432c1.368,0.504,0.72,1.8-0.36,2.016
		c-1.08,0.216-1.728-0.36-2.592-0.936c-0.864-0.648-0.216,1.224-0.216,1.224s-0.216-0.072-0.504-0.216
		c-1.728-0.935-4.032-1.368-5.544-2.448c-1.08-0.792-2.232-0.648-2.376-0.072c-0.216,0.504,0.576,1.224,0.576,1.224
		s0.143,0.792-0.936,1.944c-1.008,1.152-3.744,1.08-3.744,1.08s0.576,0.288,2.592,0.288c1.944,0,2.232-2.16,4.104-2.952
		c1.872-0.72,4.68,2.232,5.832,2.952c2.376,1.368,5.184-0.288,6.192-2.376c0.216-0.432,0.36-0.792,0.36-0.792s0.144,0,0.576,1.08
		c1.584,3.456,7.704,3.312,10.584,2.448c2.952-1.008,5.04-0.288,7.344,1.656c0.504,0.36,0.72,0.648,0.72,0.648
		C184.948,37.1,184.876,34.292,181.276,35.156z"/>
	<path fill-rule="evenodd" clip-rule="evenodd" fill="#FFFFFF" d="M136.78,26.444c3.456-2.232,7.704-1.656,10.656,0.936
		c0.576,0.504,0.936,0.864,0.936,0.864l-0.144-0.216c-0.288-0.36-0.576-0.792-0.936-1.152c-2.448-2.592-4.896-3.384-8.568-2.736
		c-1.944,0.288-2.448,0.576-4.176,0.288c-1.728-0.288-0.432-2.664-0.432-2.664s0,0-0.936,1.008c-0.936,0.936-0.216,3.24,1.584,3.096
		c1.8-0.216,1.944,0.288,1.944,0.288s-1.8,0.936-3.672,1.152c-3.312,0.288-3.24,4.104-0.504,3.096
		c0.36-0.072,0.648-0.432,0.936-0.504c-0.72,1.512-1.008,3.24-0.648,5.04c0.576,2.664,2.376,4.68,4.752,5.544
		c-0.288,0.576-0.216,1.656,0.288,2.736c0.648,1.368,1.656,2.304,2.232,2.016c0.576-0.216,0.648-1.224,0.288-2.376
		c0.144,0.072,0.36,0.144,0.576,0.144c1.512,0.36,2.808,0.072,2.952-0.576c0.144-0.504-0.432-1.08-1.296-1.44
		c0.72-0.288,1.368-0.648,2.016-1.152c3.312-2.88,3.384-8.496-0.864-10.512c-1.584-0.72-3.528-0.648-4.968,0.216
		c-2.808,1.656-2.592,6.552,0.432,7.776c1.8,0.432,3.744-0.72,3.744-2.664c0.072-1.728-1.728-2.88-3.24-1.944
		c-0.288,0.144-0.648,0.432-0.648-0.072c0-0.864,0.864-1.512,1.584-1.728c2.232-0.576,4.104,1.152,4.536,3.168
		c0.504,2.736-1.224,5.112-3.816,5.976c-2.808,0.72-5.472-0.432-7.2-2.736C131.596,33.212,133.396,29.18,136.78,26.444z"/>
	<path fill-rule="evenodd" clip-rule="evenodd" fill="#FFFFFF" d="M256.228,33.5c-2.592-1.224-4.608,0.072-6.624,0.288
		c-0.864,0.072-1.8-0.288-1.8-0.288s0.216,0.072,0.576,0.072c1.8,0.072,1.8-1.512,3.24-1.512c0.648,0,1.08,0.072,1.08,0.072
		s-0.144-0.144-0.432-0.36c-2.232-1.368-3.312-0.432-5.04,0.792c-0.267,0.167-0.719,0.301-1.128,0.399
		c-0.108-0.443-0.474-0.759-0.961-0.759c-0.309,0-0.577,0.174-0.749,0.432h-61.459c0.072,0.072,0.072,0.072,0.072,0.144
		c0.288,0.36,0.216,0.72,0,1.08h61.433c0.174,0.218,0.423,0.36,0.703,0.36c0.456,0,0.812-0.275,0.944-0.674
		c0.592,0.331,1.279,0.852,1.36,1.537c0.072,1.224,0,2.232,0.864,2.52c0.936,0.288,1.656,0.576,2.016,1.152
		c0.36,0.576,0.432,0.72,0.432,0.72c0.72-2.88-0.648-4.392-3.096-5.544c-0.216-0.072-0.288-0.144-0.288-0.144
		s1.944-0.144,3.24,1.008c2.952,2.448,3.312-1.152,5.544-0.936c0.648,0,0.648,0,0.648,0S256.588,33.644,256.228,33.5z"/>
	<path fill-rule="evenodd" clip-rule="evenodd" fill="#FFFFFF" d="M74.86,32.78c0.072-0.072,0.072-0.072,0.144-0.144H13.539
		c-0.179-0.258-0.462-0.432-0.815-0.432c-0.428,0-0.787,0.319-0.891,0.765c-0.423-0.098-0.887-0.235-1.125-0.405
		c-1.8-1.224-2.88-2.16-5.112-0.792c-0.288,0.216-0.432,0.36-0.432,0.36s0.432-0.072,1.081-0.072c1.44,0,1.44,1.584,3.24,1.512
		c0.36,0,0.576-0.072,0.576-0.072s-0.936,0.36-1.8,0.288c-2.016-0.216-4.104-1.512-6.624-0.288c-0.36,0.144-0.576,0.36-0.576,0.36
		s0,0,0.576,0c2.232-0.216,2.664,3.384,5.616,0.936c1.296-1.152,3.24-1.008,3.24-1.008s-0.072,0.072-0.36,0.144
		c-2.448,1.152-3.744,2.664-3.024,5.544c0,0,0-0.144,0.432-0.72c0.36-0.576,1.08-0.864,1.944-1.152
		c0.936-0.288,0.864-1.296,0.936-2.52c0.041-0.703,0.792-1.233,1.426-1.562c0.124,0.411,0.472,0.699,0.878,0.699
		c0.32,0,0.586-0.142,0.768-0.36h61.44C74.716,33.5,74.644,33.14,74.86,32.78z"/>
</g>
</svg>
