<?xml version="1.0" encoding="utf-8"?>
<!-- Generator: Adobe Illustrator 17.0.0, SVG Export Plug-In . SVG Version: 6.00 Build 0)  -->
<!DOCTYPE svg PUBLIC "-//W3C//DTD SVG 1.1//EN" "http://www.w3.org/Graphics/SVG/1.1/DTD/svg11.dtd">
<svg version="1.1" id="Слой_1" xmlns="http://www.w3.org/2000/svg" xmlns:xlink="http://www.w3.org/1999/xlink" x="0px" y="0px"
	 width="133.667px" height="45.35px" viewBox="17.533 0 133.667 45.35" enable-background="new 17.533 0 133.667 45.35"
	 xml:space="preserve">
<g>
	<path fill="#FFFFFF" d="M35.476,2.46c-4.968-1.944-10.368,0.144-13.032,4.248c-0.92,1.498-1.395,3.084-1.526,4.668
		c0.018,0.328-0.027,0.652-0.101,0.969c0.051,0.24,0.085,0.484,0.084,0.731c0.261,3.154,1.949,6.173,4.783,8.319
		c1.861,1.412,4.237,2.475,6.668,2.742c2.495,0.761,4.122-2.516,2.332-5.262c-2.016-3.096-6.984-6.624-10.872-7.056
		c-0.432,0-0.648,0-0.648,0s0.432,0.288,1.08,0.648c1.8,1.08,5.616,3.024,6.48,5.184c0.144,0.288,0.144,0.648,0.144,0.864
		c0.072,0,0.072-0.072,0.144-0.072c0.864-0.432,1.872-0.216,2.232,0.504c0.216,0.504,0.072,1.08-0.288,1.584
		c0.288,0,0.576,0.216,0.72,0.504c0.216,0.504-0.072,1.152-0.72,1.512c-0.648,0.288-1.368,0.144-1.656-0.36
		c-0.144-0.288-0.072-0.648,0.072-0.936c-0.576,0-1.152-0.216-1.368-0.72s-0.072-1.152,0.36-1.584c-0.072,0-1.296-0.504-1.8-2.016
		c-0.504-1.656-2.448-2.952-3.672-3.528c-1.152-0.576-2.016-1.008-2.016-1.008s0.72,0.504,1.512,1.224
		c3.24,2.736,3.456,6.696,6.336,9.504c0.366,0.35,0.723,0.597,1.07,0.78c-5.244-1.267-9.343-4.87-10.286-9.924
		c-0.504-3.672,0.864-7.2,4.104-9.576c3.096-2.16,7.272-2.52,10.584-0.504c2.808,1.872,4.176,5.328,2.16,8.136
		c-1.224,1.512-3.456,2.376-5.328,1.296c-1.008-0.648-1.296-1.512-1.152-2.592c0.144-0.792-0.72-0.36-1.008,0.072
		c-1.008,1.44,0.216,3.168,1.656,3.888c3.096,1.512,6.408-0.432,7.56-3.168C41.524,7.788,39.22,4.116,35.476,2.46z"/>
	<path fill="#FFFFFF" d="M73.276,36.156c-1.44,0.36-4.824,0.432-1.656-0.216c0.864,0,3.024-1.008,2.233-2.16
		c-0.36-0.576-1.44-0.648-2.376-0.144c-1.44,0.648-2.16,2.16-3.672,2.88c-2.088,0.936-4.032-0.288-4.032-0.288
		s0.432,0.072,1.152,0.072c1.944,0.072,4.032-0.864,5.112-2.52c1.368-2.088,0.72-6.192-2.232-6.624c-0.504-0.072-1.008,0-1.44,0.072
		c-0.648,0.216-1.368,0.504-1.8,1.008c-0.792,0.864-0.144,0.936,1.8,0.144c1.872-0.792,2.592,1.152,2.592,1.152
		s-1.44-0.504-2.376-0.144c-0.936,0.288-0.864,1.008,0.864,0.936c1.728,0,1.728,1.224,1.656,2.232
		c-0.144,0.936-1.224,1.656-1.224,1.656s0-0.144,0-0.432c-0.144-1.224-0.72-1.656-2.016-1.296c0,0,0.648,1.08-0.216,2.376
		c-1.08,1.584-5.976,1.008-5.472-1.152c0.216-0.936,1.44,0.36,1.584,0.576c0.576,0.936,1.08-0.072,0.432-0.576
		s0.144-0.936,0.144-0.936s0.36,0,0.792,0.864s2.088,0.576,1.656-1.224c-0.504-1.8-3.456-1.584-4.824-0.432
		c-0.216,0.216-0.432,0.36-0.648,0.504c0,0,0.072-0.288,0.144-0.648c0.936-4.752-3.96-7.776-7.56-5.832
		c-1.296,0.72-1.584,2.448-1.008,3.24c0.504,0.792,0.648-0.144,0.792-1.08c0.144-0.864,1.944-1.944,1.224-0.216
		c-0.216,0.648,0.072,0.864,0.216,1.008c0.648,0.432,1.368-0.864,1.656-1.152c0.936-0.72,1.872,0.432,1.008,1.152
		c-0.936,0.72-0.144,1.224-0.144,1.224s0.072-0.36,0.864-1.008s1.44,0.936,1.152,2.016c-1.008,3.24-15.48-2.304-13.824-5.256
		c0.36-0.648,1.224-1.008,1.512-0.144c0.36,0.864-0.36,1.008-0.36,1.008c1.008,0.216,1.512-0.432,1.656-1.512
		c0.072-1.224-1.152-1.152-1.152-1.152c0.504-1.08-2.232-2.232-2.592-0.144c-0.072,0.36,0,0.648,0,0.648s-0.936,0.504-1.008,1.656
		c-0.072,1.08,1.152,2.448,1.152,2.448s-1.44-0.864-2.304-1.8c-0.936-1.008-1.296-2.088-0.792-3.024
		c0.576-0.936,2.088-1.512,2.088-1.512s-0.288,0-1.08-0.144c-0.864-0.144-1.512,0.72-1.512,0.72s-0.144-0.576,0.36-0.936
		c0.504-0.288,0.576-0.864-0.504-1.152c-1.152-0.36-1.584,1.584-1.584,1.584s-0.432-0.504-0.216-1.8
		c0.216-1.368,1.224-1.44,2.448-1.296c1.224,0.216,1.728-0.504,1.368-1.296c-0.432-0.792-1.296-0.432-1.296-0.504
		c0,0,0-0.36,0.432-0.432c0.936-0.36,3.096,0,3.6,0.936c0.576,1.296-1.296,1.152-0.864,2.232c0.72,1.584,3.456-0.216,2.52-2.232
		c-0.576-1.008-1.872-1.728-3.384-1.944c-3.24-0.36-6.192,2.232-5.832,5.616c0.288,3.096,3.024,6.192,5.976,7.344
		c0.576,0.288,1.008,0.576,1.008,0.576c0-0.072-1.008,0.072-0.72,0.792c0.36,0.648,3.096,0.504,3.096,0.504
		s-0.648,0.432,0.144,1.008c0.648,0.504,1.44,0.432,2.808-0.144c0,0-0.648,0.504-0.216,0.792c0.432,0.36,1.224,0.288,2.88,0.36
		c1.656,0,2.592-0.144,4.032,0.432c1.368,0.504,0.72,1.8-0.36,2.016s-1.728-0.36-2.592-0.936c-0.864-0.648-0.216,1.224-0.216,1.224
		s-0.216-0.072-0.504-0.216c-1.728-0.935-4.032-1.368-5.544-2.448c-1.08-0.792-2.232-0.648-2.376-0.072
		c-0.216,0.504,0.576,1.224,0.576,1.224s0.143,0.792-0.936,1.944c-1.008,1.152-3.744,1.08-3.744,1.08s0.576,0.288,2.592,0.288
		c1.944,0,2.232-2.16,4.104-2.952c1.872-0.72,4.68,2.232,5.832,2.952c2.376,1.368,5.184-0.288,6.192-2.376
		c0.216-0.432,0.36-0.792,0.36-0.792s0.144,0,0.576,1.08c1.584,3.456,7.704,3.312,10.584,2.448c2.952-1.008,5.04-0.288,7.344,1.656
		c0.504,0.36,0.72,0.648,0.72,0.648C76.948,38.1,76.876,35.292,73.276,36.156z"/>
	<path fill="#FFFFFF" d="M28.78,27.444c3.456-2.232,7.704-1.656,10.656,0.936c0.576,0.504,0.936,0.864,0.936,0.864l-0.144-0.216
		c-0.288-0.36-0.576-0.792-0.936-1.152c-2.448-2.592-4.896-3.384-8.568-2.736c-1.944,0.288-2.448,0.576-4.176,0.288
		s-0.432-2.664-0.432-2.664s0,0-0.936,1.008c-0.936,0.936-0.216,3.24,1.584,3.096c1.8-0.216,1.944,0.288,1.944,0.288
		s-1.8,0.936-3.672,1.152c-3.312,0.288-3.24,4.104-0.504,3.096c0.36-0.072,0.648-0.432,0.936-0.504
		c-0.72,1.512-1.008,3.24-0.648,5.04c0.576,2.664,2.376,4.68,4.752,5.544c-0.288,0.576-0.216,1.656,0.288,2.736
		c0.648,1.368,1.656,2.304,2.232,2.016c0.576-0.216,0.648-1.224,0.288-2.376c0.144,0.072,0.36,0.144,0.576,0.144
		c1.512,0.36,2.808,0.072,2.952-0.576c0.144-0.504-0.432-1.08-1.296-1.44c0.72-0.288,1.368-0.648,2.016-1.152
		c3.312-2.88,3.384-8.496-0.864-10.512c-1.584-0.72-3.528-0.648-4.968,0.216c-2.808,1.656-2.592,6.552,0.432,7.776
		c1.8,0.432,3.744-0.72,3.744-2.664c0.072-1.728-1.728-2.88-3.24-1.944c-0.288,0.144-0.648,0.432-0.648-0.072
		c0-0.864,0.864-1.512,1.584-1.728c2.232-0.576,4.104,1.152,4.536,3.168c0.504,2.736-1.224,5.112-3.816,5.976
		c-2.808,0.72-5.472-0.432-7.2-2.736C23.596,34.212,25.396,30.18,28.78,27.444z"/>
	<path fill="#FFFFFF" d="M148.228,34.5c-2.592-1.224-4.608,0.072-6.624,0.288c-0.864,0.072-1.8-0.288-1.8-0.288
		s0.216,0.072,0.576,0.072c1.8,0.072,1.8-1.512,3.24-1.512c0.648,0,1.08,0.072,1.08,0.072s-0.144-0.144-0.432-0.36
		c-2.232-1.368-3.312-0.432-5.04,0.792c-0.267,0.167-0.719,0.301-1.128,0.399c-0.108-0.443-0.474-0.759-0.961-0.759
		c-0.309,0-0.577,0.174-0.749,0.432H74.931c0.072,0.072,0.072,0.072,0.072,0.144c0.288,0.36,0.216,0.72,0,1.08h61.433
		c0.174,0.218,0.423,0.36,0.703,0.36c0.456,0,0.812-0.275,0.944-0.674c0.592,0.331,1.279,0.852,1.36,1.537
		c0.072,1.224,0,2.232,0.864,2.52c0.936,0.288,1.656,0.576,2.016,1.152s0.432,0.72,0.432,0.72c0.72-2.88-0.648-4.392-3.096-5.544
		c-0.216-0.072-0.288-0.144-0.288-0.144s1.944-0.144,3.24,1.008c2.952,2.448,3.312-1.152,5.544-0.936c0.648,0,0.648,0,0.648,0
		S148.588,34.644,148.228,34.5z"/>
</g>
</svg>
